# xmcd
# 
# Track frame offsets:
#     150
#     8930
#     21517
#     30810
#     41952
#     53295
#     62390
#     73162
#     83940
#     94870
#     104817
#     114825
#     125735
#     134187
#     144875
#     156860
#     168590
#     178325
#     186365
#     197190
# 
# Disc length: 2763
# 
# Revision: 1
# Processed by: cddbd v1.5.2PL0 Copyright (c) Steve Scherf et al.
# Submitted via: fre:ac v1.0.31
# 
DISCID=240ac914
DTITLE=Johnny Cash - His Sun Years, Down South, Disc1
DYEAR=0
DGENRE=Country
TTITLE0=Two Timin' Woman
TTITLE1=Folsom Prison Blues
TTITLE2=Luther Played The Boogie
TTITLE3=Mean Eyed Cat
TTITLE4=Big River
TTITLE5=Blue Train
TTITLE6=Fool's Hall Of Fame
TTITLE7=Wide Open Road
TTITLE8=Cry, Cry, Cry
TTITLE9=Hey! Porter
TTITLE10=Get Rhythm
TTITLE11=I Love You Because
TTITLE12=I Forgot To Remember To Forget
TTITLE13=Train Of Love
TTITLE14=Goodnight Irene
TTITLE15=Doin' My Time
TTITLE16=Rock Island Line
TTITLE17=The Wreck Of The Old '97
TTITLE18=Belshazar
TTITLE19=I Was There When It Happened
EXTD=
EXTT0=
EXTT1=
EXTT2=
EXTT3=
EXTT4=
EXTT5=
EXTT6=
EXTT7=
EXTT8=
EXTT9=
EXTT10=
EXTT11=
EXTT12=
EXTT13=
EXTT14=
EXTT15=
EXTT16=
EXTT17=
EXTT18=
EXTT19=
PLAYORDER=
